<?xml version="1.0" encoding="UTF-8"?>
<svg width="510px" height="510px" viewBox="0 0 510 510" xmlns="http://www.w3.org/2000/svg" xmlns:xlink="http://www.w3.org/1999/xlink" version="1.1">
 <!-- Generated by Pixelmator Pro 1.3.4 -->
 <path id="path" d="M104 0 C46.563 0 0 46.563 0 104 L0 405 C0 462.437 46.563 509 104 509 L405 509 C462.437 509 509 462.437 509 405 L509 104 C509 46.563 462.437 0 405 0 Z" fill="#ffffff" fill-opacity="1" stroke="none"/>
 <path id="path-1" d="M21.056 254.458 C21.027 257.675 21.718 260.843 23.143 263.964 24.567 267.084 26.668 269.904 29.444 272.422 L133.551 366.379 C138.639 370.964 144.22 373.165 150.297 372.99 156.371 372.814 161.537 370.345 165.79 365.589 170.076 360.722 172.002 355.258 171.565 349.201 171.128 343.143 168.443 337.898 163.503 333.462 L76.304 254.458 163.503 175.454 C168.443 170.986 171.128 165.712 171.565 159.634 172.002 153.556 170.076 148.121 165.79 143.328 161.537 138.572 156.371 136.103 150.297 135.926 144.22 135.75 138.639 137.953 133.551 142.536 L29.444 236.38 C26.668 238.942 24.567 241.792 23.143 244.929 21.718 248.066 21.027 251.242 21.056 254.458 Z" fill="#000000" fill-opacity="1" stroke="none"/>
 <path id="path-2" d="M489.997 254.458 C490.032 251.242 489.347 248.066 487.94 244.929 486.536 241.792 484.444 238.942 481.67 236.38 L377.615 142.536 C372.527 137.953 366.946 135.75 360.87 135.926 354.795 136.103 349.631 138.572 345.378 143.328 341.014 148.121 339.05 153.556 339.488 159.634 339.927 165.712 342.596 170.986 347.498 175.454 L434.862 254.458 347.498 333.462 C342.596 337.898 339.927 343.143 339.488 349.201 339.05 355.258 341.014 360.722 345.378 365.589 349.631 370.345 354.795 372.814 360.87 372.99 366.946 373.165 372.527 370.964 377.615 366.379 L481.67 272.422 C484.444 269.904 486.536 267.084 487.94 263.964 489.347 260.843 490.032 257.675 489.997 254.458 Z" fill="#000000" fill-opacity="1" stroke="none"/>
 <path id="path-3" d="M219.779 410.462 L320.168 149.206 278.161 132.949 177.681 394.445 178.322 438.263 C178.434 440.599 179.673 442.265 182.039 443.263 184.404 444.263 186.408 443.934 188.055 442.272 Z M328.407 128.451 L337.842 104.582 C340.12 98.401 340.413 93.108 338.714 88.697 337.014 84.289 333.425 80.988 327.945 78.792 L319.798 75.666 C314.366 73.583 309.541 73.678 305.324 75.953 301.106 78.232 297.807 82.349 295.429 88.307 L286.069 112.342 Z" fill="#000000" fill-opacity="1" stroke="#ffffff" stroke-width="40" stroke-opacity="1" stroke-linejoin="round"/>
 <path id="path-4" d="M216.604 408.457 L324.025 150.013 282.474 132.626 174.954 391.307 174.41 435.126 C174.459 437.465 175.652 439.164 177.99 440.225 180.328 441.289 182.34 441.014 184.03 439.397 Z M332.823 129.489 L342.9 105.883 C345.345 99.767 345.78 94.484 344.201 90.028 342.621 85.576 339.123 82.178 333.704 79.835 L325.645 76.49 C320.271 74.261 315.445 74.225 311.169 76.385 306.891 78.549 303.481 82.575 300.943 88.467 L290.936 112.24 Z" fill="#000000" fill-opacity="1" stroke="#000000" stroke-width="15" stroke-opacity="1" stroke-linejoin="round"/>
</svg>
